<?xml version="1.0" encoding="UTF-8" standalone="no"?>
<svg
   width="2004.2792"
   height="726.51709"
   viewBox="329.775 439.999 256.88926 93.14508"
   version="1.1"
   id="svg1"
   sodipodi:docname="airbnb.svg"
   inkscape:version="1.3.2 (091e20ef0f, 2023-11-25, custom)"
   xmlns:inkscape="http://www.inkscape.org/namespaces/inkscape"
   xmlns:sodipodi="http://sodipodi.sourceforge.net/DTD/sodipodi-0.dtd"
   xmlns="http://www.w3.org/2000/svg"
   xmlns:svg="http://www.w3.org/2000/svg">
  <defs
     id="defs1" />
  <sodipodi:namedview
     id="namedview1"
     pagecolor="#ffffff"
     bordercolor="#111111"
     borderopacity="1"
     inkscape:showpageshadow="0"
     inkscape:pageopacity="0"
     inkscape:pagecheckerboard="1"
     inkscape:deskcolor="#d1d1d1"
     inkscape:zoom="0.35355339"
     inkscape:cx="1613.6177"
     inkscape:cy="308.29856"
     inkscape:window-width="1874"
     inkscape:window-height="1056"
     inkscape:window-x="46"
     inkscape:window-y="24"
     inkscape:window-maximized="1"
     inkscape:current-layer="svg1"
     showgrid="false" />
  <path
     style="font-weight:bold;font-size:73.1771px;line-height:1.25;font-family:Montserrat;-inkscape-font-specification:'Montserrat Bold';letter-spacing:-6.95014px;fill:#ff5a5f;stroke-width:1.82944"
     d="m 433.88993,510.22569 c -4.4882,0 -8.43977,-0.87812 -11.85469,-2.63437 -3.36615,-1.75625 -5.97613,-4.14671 -7.82995,-7.17136 -1.85382,-3.07343 -2.78073,-6.56154 -2.78073,-10.46432 0,-3.95157 0.90251,-7.43968 2.70755,-10.46433 1.85382,-3.07344 4.36623,-5.46389 7.53724,-7.17135 3.171,-1.75625 6.75668,-2.63438 10.75703,-2.63438 3.85399,0 7.31771,0.82934 10.39115,2.48802 3.12222,1.6099 5.58585,3.95157 7.39089,7.025 1.80503,3.02465 2.70755,6.65912 2.70755,10.90339 0,0.43907 -0.0244,0.95131 -0.0732,1.53672 -0.0488,0.53663 -0.0976,1.04887 -0.14635,1.53672 h -31.97839 v -6.65912 h 25.97787 l -4.39063,1.97579 c 0,-2.04896 -0.41467,-3.8296 -1.24401,-5.34193 -0.82934,-1.51233 -1.97578,-2.68316 -3.43932,-3.5125 -1.46355,-0.87813 -3.17102,-1.31719 -5.1224,-1.31719 -1.95139,0 -3.68325,0.43906 -5.19557,1.31719 -1.46355,0.82934 -2.60999,2.02456 -3.43933,3.58567 -0.82934,1.51233 -1.24401,3.31736 -1.24401,5.41511 v 1.75625 c 0,2.14653 0.46345,4.04913 1.39037,5.70781 0.97569,1.6099 2.31727,2.85391 4.02474,3.73204 1.75624,0.82934 3.8052,1.24401 6.14687,1.24401 2.09774,0 3.92717,-0.3171 5.48829,-0.95131 1.60989,-0.6342 3.07343,-1.5855 4.39062,-2.8539 l 6.0737,6.58594 c -1.80504,2.04895 -4.07353,3.63446 -6.80547,4.75651 -2.73195,1.07326 -5.87856,1.60989 -9.43984,1.60989 z m 44.23875,0 c -3.46372,0 -6.43959,-0.73177 -8.92761,-2.19531 -2.48802,-1.46354 -4.39062,-3.68325 -5.70782,-6.65912 -1.31718,-3.02465 -1.97578,-6.82986 -1.97578,-11.41562 0,-4.63455 0.68299,-8.43976 2.04896,-11.41563 1.41476,-2.97587 3.36615,-5.19557 5.85417,-6.65912 2.48802,-1.46354 5.39072,-2.19531 8.70808,-2.19531 3.70764,0 7.025,0.82934 9.95208,2.48802 2.97587,1.65868 5.31754,4.00035 7.025,7.025 1.75626,3.02465 2.63438,6.61033 2.63438,10.75704 0,4.09791 -0.87812,7.6592 -2.63438,10.68385 -1.70746,3.02465 -4.04913,5.39071 -7.025,7.09818 -2.92708,1.65868 -6.24444,2.48802 -9.95208,2.48802 z m -23.27032,-0.58541 v -54.29741 h 11.41562 v 22.90443 l -0.73177,11.63516 0.21954,11.70834 v 8.04948 z m 21.29453,-8.78125 c 1.90261,0 3.58568,-0.43906 5.04922,-1.31719 1.51233,-0.87813 2.70756,-2.12214 3.58568,-3.73203 0.92692,-1.65869 1.39037,-3.61008 1.39037,-5.85417 0,-2.29289 -0.46345,-4.24428 -1.39037,-5.85417 -0.87812,-1.6099 -2.07335,-2.85391 -3.58568,-3.73203 -1.46354,-0.87813 -3.14661,-1.31719 -5.04922,-1.31719 -1.9026,0 -3.61006,0.43906 -5.12239,1.31719 -1.51232,0.87812 -2.70755,2.12213 -3.58568,3.73203 -0.87812,1.60989 -1.31719,3.56128 -1.31719,5.85417 0,2.24409 0.43907,4.19548 1.31719,5.85417 0.87813,1.60989 2.07336,2.8539 3.58568,3.73203 1.51233,0.87813 3.21979,1.31719 5.12239,1.31719 z m 47.97139,-31.17345 c 3.12222,0 5.90295,0.6342 8.34219,1.9026 2.48802,1.21962 4.43941,3.12223 5.85417,5.70782 1.41475,2.53681 2.12213,5.80538 2.12213,9.80573 v 22.53855 h -11.41563 v -20.7823 c 0,-3.17101 -0.70738,-5.51267 -2.12213,-7.025 -1.36597,-1.51233 -3.31736,-2.26849 -5.85417,-2.26849 -1.80503,0 -3.43932,0.39028 -4.90287,1.17083 -1.41475,0.73177 -2.5368,1.87822 -3.36614,3.43933 -0.78056,1.56111 -1.17084,3.56128 -1.17084,6.00052 v 19.46511 H 500.19537 V 470.271 h 10.90338 v 10.90339 l -2.04895,-3.29297 c 1.41475,-2.63438 3.43932,-4.65895 6.07369,-6.0737 2.63438,-1.41476 5.63464,-2.12214 9.00079,-2.12214 z m 42.95664,40.54011 c -3.46372,0 -6.43959,-0.73177 -8.92761,-2.19531 -2.48802,-1.46354 -4.39062,-3.68325 -5.70781,-6.65912 -1.31719,-3.02465 -1.97578,-6.82986 -1.97578,-11.41562 0,-4.63455 0.68299,-8.43976 2.04896,-11.41563 1.41475,-2.97587 3.36614,-5.19557 5.85416,-6.65912 2.48803,-1.46354 5.39072,-2.19531 8.70808,-2.19531 3.70764,0 7.025,0.82934 9.95208,2.48802 2.97587,1.65868 5.31754,4.00035 7.02501,7.025 1.75625,3.02465 2.63437,6.61033 2.63437,10.75704 0,4.09791 -0.87812,7.6592 -2.63437,10.68385 -1.70747,3.02465 -4.04914,5.39071 -7.02501,7.09818 -2.92708,1.65868 -6.24444,2.48802 -9.95208,2.48802 z m -23.27032,-0.58541 v -54.29741 h 11.41563 v 22.90443 l -0.73177,11.63516 0.21953,11.70834 v 8.04948 z m 21.29454,-8.78125 c 1.9026,0 3.58567,-0.43906 5.04922,-1.31719 1.51233,-0.87813 2.70755,-2.12214 3.58567,-3.73203 0.92691,-1.65869 1.39037,-3.61008 1.39037,-5.85417 0,-2.29289 -0.46346,-4.24428 -1.39037,-5.85417 -0.87812,-1.6099 -2.07334,-2.85391 -3.58567,-3.73203 -1.46355,-0.87813 -3.14662,-1.31719 -5.04922,-1.31719 -1.90261,0 -3.61007,0.43906 -5.1224,1.31719 -1.51233,0.87812 -2.70755,2.12213 -3.58568,3.73203 -0.87813,1.60989 -1.31719,3.56128 -1.31719,5.85417 0,2.24409 0.43906,4.19548 1.31719,5.85417 0.87813,1.60989 2.07335,2.8539 3.58568,3.73203 1.51233,0.87813 3.21979,1.31719 5.1224,1.31719 z"
     id="text1"
     aria-label="ebnb"
     sodipodi:nodetypes="cccsccsccsccccccscsccssccsccccccsscscssccsccsccccccccsccsccsssscsssccsccscsccsccccccsssscscssccsccsccccccccsccsccsssscss" />
  <path
     d="m 408.96073,486.72149 c 0.1311,-25.224 -17.18603,-50.09857 -61.01335,-46.345 -7.508,1.101 -13.812,6.105 -16.617,13.013 -1.102,2.603 -1.602,5.306 -1.602,8.108 0,0.801 0.1,1.801 0.201,2.603 0.4,3.304 1.5,6.707 3.402,10.011 2.303,4.104 5.605,8.008 10.41,12.412 -4.805,4.404 -8.107,8.408 -10.41,12.412 -1.902,3.305 -3.002,6.707 -3.402,10.01 -0.102,0.801 -0.201,1.803 -0.201,2.604 0,2.803 0.5,5.605 1.602,8.107 2.805,7.008 9.209,11.912 16.617,13.014 31.031,3.95443 61.2356,-17.33492 61.01335,-45.949 z m -55.50835,-0.101 c 6.807,-5.406 13.213,-8.91 18.617,-10.11 2.303,-0.5 4.305,-0.601 6.107,-0.3 1.602,0.199 3.004,0.801 4.205,1.602 2.701,1.902 4.404,5.105 4.404,8.809 0,3.705 -1.602,7.008 -4.404,8.81 -1.201,0.801 -2.604,1.401 -4.205,1.603 -1.803,0.299 -3.904,0.199 -6.107,-0.301 -5.304,-1.205 -11.711,-4.709 -18.617,-10.113 z m -4.705,39.938 c -5.205,-0.7 -9.711,-4.204 -11.713,-9.108 -1,-2.402 -1.301,-5.006 -1,-7.607 0.301,-2.502 1.102,-5.006 2.602,-7.607 2.004,-3.604 5.105,-7.207 9.711,-11.412 8.107,6.606 15.516,10.61 22.121,12.112 3.104,0.701 5.906,0.802 8.51,0.5 2.502,-0.399 4.805,-1.301 6.807,-2.702 4.506,-3.105 7.107,-8.311 7.107,-14.115 0,-5.804 -2.703,-11.01 -7.107,-14.113 -2.002,-1.401 -4.305,-2.303 -6.807,-2.703 -2.604,-0.4 -5.506,-0.301 -8.51,0.5 -6.605,1.501 -14.113,5.605 -22.221,12.111 -4.605,-4.104 -7.709,-7.808 -9.711,-11.412 -1.502,-2.603 -2.303,-5.104 -2.602,-7.606 -0.301,-2.702 0.1,-5.306 1,-7.608 2.002,-4.904 6.508,-8.408 11.713,-9.108 29.529,-2.5666 53.41705,11.38771 53.70535,40.14 0.27499,27.42417 -36.78445,44.27807 -53.60535,39.738 z"
     fill="#ff5a5f"
     id="path2"
     sodipodi:nodetypes="cccscccccscccccccsccccccccccccsccccccccsc" />
</svg>
